<!-- Generator: Adobe Illustrator 19.0.0, SVG Export Plug-In  -->
<svg version="1.1"
	 xmlns="http://www.w3.org/2000/svg" xmlns:xlink="http://www.w3.org/1999/xlink" xmlns:a="http://ns.adobe.com/AdobeSVGViewerExtensions/3.0/"
	 x="0px" y="0px" width="233.708px" height="31.787px" viewBox="0 0 233.708 31.787"
	 style="enable-background:new 0 0 233.708 31.787;" xml:space="preserve">
<style type="text/css">
	.st0{font-family:'KohinoorDevanagari-Regular';}
	.st1{font-size:24px;}
</style>
<defs>
</defs>
<g id="XMLID_15_">
	<path id="XMLID_17_" d="M8.617,2.914l5.449,16.825h-2.017l-1.56-4.896H3.72l-1.56,4.896H0.192L5.641,2.914H8.617z M4.272,13.139
		h5.665l-1.8-5.664C7.752,6.25,7.465,5.267,7.153,4.234H7.057c-0.288,1.008-0.6,2.016-0.96,3.192L4.272,13.139z"/>
	<path id="XMLID_20_" d="M27.265,14.987c0,2.736-1.632,4.752-5.641,4.752h-5.112V2.914h5.136c2.592,0,4.776,1.128,4.776,4.296
		c0,2.041-0.936,3.457-2.28,3.793v0.096C25.897,11.314,27.265,12.562,27.265,14.987z M21.289,4.594h-2.904v5.833h3
		c2.136,0,3.145-0.912,3.145-3.024C24.529,5.387,23.281,4.594,21.289,4.594z M25.321,15.107c0-2.377-1.68-3.001-3.648-3.001h-3.288
		v5.953h3.384C24.217,18.06,25.321,17.171,25.321,15.107z"/>
	<path id="XMLID_24_" d="M36.648,19.979c-4.008,0-6.432-2.376-6.432-8.568c0-6.217,2.568-8.737,6.625-8.737
		c3.984,0,6.433,2.376,6.433,8.569C43.273,17.459,40.681,19.979,36.648,19.979z M36.768,18.251c2.784,0,4.537-1.632,4.537-6.84
		c0-5.257-1.8-7.009-4.608-7.009c-2.736,0-4.513,1.608-4.513,6.841C32.184,16.499,33.984,18.251,36.768,18.251z"/>
	<path id="XMLID_27_" d="M56.953,14.123V2.914h1.92v10.969c0,4.057-2.352,6.097-6.121,6.097c-3.792,0-5.833-2.185-5.833-5.809V2.914
		h1.92v10.969c0,3.024,1.608,4.368,4.128,4.368C55.417,18.251,56.953,17.123,56.953,14.123z"/>
	<path id="XMLID_29_" d="M65.832,4.618h-4.488V2.914h10.873v1.704h-4.464v15.121h-1.92V4.618z"/>
	<path id="XMLID_31_" d="M84.191,4.618h-4.488V2.914h10.873v1.704h-4.464v15.121h-1.92V4.618z"/>
	<path id="XMLID_33_" d="M105.096,2.914v16.825h-1.92v-7.656h-8.137v7.656h-1.92V2.914h1.92v7.465h8.137V2.914H105.096z"/>
	<path id="XMLID_35_" d="M109.607,19.739V2.914h8.929v1.704h-7.009v5.736h6.168v1.704h-6.168v5.977h7.345v1.704H109.607z"/>
	<path id="XMLID_37_" d="M129.167,2.914h4.416c5.064,0,7.345,2.616,7.345,8.257c0,5.473-2.208,8.568-7.369,8.568h-4.392V2.914z
		 M131.086,18.035h2.448c3.696,0,5.424-1.824,5.424-6.648c0-5.017-1.968-6.769-5.544-6.769h-2.328V18.035z"/>
	<path id="XMLID_40_" d="M144.646,19.739V2.914h8.929v1.704h-7.009v5.736h6.168v1.704h-6.168v5.977h7.345v1.704H144.646z"/>
	<path id="XMLID_42_" d="M164.71,15.443c0-3.816-8.017-2.952-8.017-8.257c0-2.544,2.184-4.513,5.208-4.513
		c1.896,0,3.384,0.624,4.344,1.416l-1.176,1.488c-0.84-0.672-1.872-1.152-3.288-1.152c-1.968,0-3.145,1.104-3.145,2.641
		c0,3.889,8.017,3.072,8.017,8.257c0,2.544-2.016,4.656-5.617,4.656c-2.544,0-4.296-0.912-5.256-1.776l1.128-1.536
		c0.936,0.769,2.28,1.584,4.296,1.584C163.486,18.251,164.71,17.003,164.71,15.443z"/>
	<path id="XMLID_44_" d="M170.325,2.914h1.92v16.825h-1.92V2.914z"/>
	<path id="XMLID_46_" d="M188.062,4.114l-1.248,1.464c-0.72-0.696-1.824-1.152-3.504-1.152c-2.448,0-5.137,1.297-5.137,6.793
		c0,5.064,1.8,7.081,5.088,7.081c1.08,0,2.28-0.217,2.953-0.673v-6.433h1.92v7.273c-1.08,0.888-2.688,1.512-5.28,1.512
		c-4.344,0-6.648-2.856-6.648-8.593c0-6.072,3.216-8.713,7.225-8.713C186.214,2.674,187.51,3.586,188.062,4.114z"/>
	<path id="XMLID_48_" d="M194.037,5.194c0.048,1.44,0.072,2.784,0.072,4.464v10.081h-1.824V2.914h2.688l5.665,10.657
		c0.648,1.224,1.344,2.544,1.944,3.792h0.168c-0.048-1.536-0.048-3.097-0.048-4.513V2.914h1.8v16.825h-2.64l-5.712-10.729
		c-0.672-1.248-1.296-2.521-1.92-3.816H194.037z"/>
	<path id="XMLID_50_" d="M209.037,19.739V2.914h8.929v1.704h-7.009v5.736h6.168v1.704h-6.168v5.977h7.345v1.704H209.037z"/>
	<path id="XMLID_52_" d="M225.909,2.914c3.504,0,5.617,1.368,5.617,4.729c0,2.76-1.776,4.368-3.792,4.584v0.097
		c0.672,0.312,1.272,0.863,2.04,2.16l3.097,5.256h-2.28l-3.048-5.376c-0.648-1.104-1.392-1.608-2.616-1.608h-1.32v6.984h-1.92V2.914
		H225.909z M223.605,11.099h2.16c2.328,0,3.792-0.912,3.792-3.24c0-2.353-1.368-3.24-3.913-3.24h-2.04V11.099z"/>
</g>
</svg>