<!-- Generator: Adobe Illustrator 19.0.0, SVG Export Plug-In  -->
<svg version="1.1"
	 xmlns="http://www.w3.org/2000/svg" xmlns:xlink="http://www.w3.org/1999/xlink" xmlns:a="http://ns.adobe.com/AdobeSVGViewerExtensions/3.0/"
	 x="0px" y="0px" width="95.183px" height="31.788px" viewBox="0 0 95.183 31.788"
	 style="enable-background:new 0 0 95.183 31.788;" xml:space="preserve">
<style type="text/css">
	.st0{fill:#FFFFFF;}
</style>
<defs>
</defs>
<g id="XMLID_15_">
	<path id="XMLID_17_" class="st0" d="M8.353,2.675c2.568,0,3.913,0.912,4.464,1.392l-1.2,1.464c-0.72-0.6-1.704-1.128-3.457-1.128
		c-2.928,0-4.729,2.137-4.729,6.889c0,4.561,1.704,6.937,4.92,6.937c1.704,0,2.688-0.456,3.289-1.032l1.056,1.368
		c-0.744,0.721-2.208,1.417-4.608,1.417c-4.633,0-6.625-3.337-6.625-8.521C1.464,5.938,3.864,2.675,8.353,2.675z"/>
	<path id="XMLID_19_" class="st0" d="M21.168,19.98c-4.008,0-6.432-2.377-6.432-8.569c0-6.217,2.568-8.736,6.625-8.736
		c3.984,0,6.433,2.376,6.433,8.568C27.793,17.46,25.201,19.98,21.168,19.98z M21.289,18.252c2.784,0,4.537-1.632,4.537-6.841
		c0-5.256-1.8-7.009-4.608-7.009c-2.736,0-4.513,1.608-4.513,6.841C16.704,16.5,18.504,18.252,21.289,18.252z"/>
	<path id="XMLID_22_" class="st0" d="M33.288,5.194c0.048,1.44,0.072,2.784,0.072,4.465V19.74h-1.824V2.914h2.688l5.665,10.657
		c0.648,1.225,1.344,2.544,1.944,3.793H42c-0.048-1.536-0.048-3.097-0.048-4.513V2.914h1.8V19.74h-2.64L35.4,9.011
		c-0.672-1.248-1.296-2.52-1.92-3.816H33.288z"/>
	<path id="XMLID_24_" class="st0" d="M50.808,4.619h-4.488V2.914h10.873v1.705h-4.464V19.74h-1.92V4.619z"/>
	<path id="XMLID_26_" class="st0" d="M64.92,2.914l5.449,16.826h-2.017l-1.56-4.896h-6.769l-1.56,4.896h-1.968l5.449-16.826H64.92z
		 M60.576,13.14h5.665l-1.8-5.665c-0.384-1.224-0.672-2.208-0.984-3.24H63.36c-0.288,1.009-0.6,2.017-0.96,3.192L60.576,13.14z"/>
	<path id="XMLID_29_" class="st0" d="M78.432,2.675c2.568,0,3.913,0.912,4.464,1.392l-1.2,1.464c-0.72-0.6-1.704-1.128-3.457-1.128
		c-2.928,0-4.729,2.137-4.729,6.889c0,4.561,1.704,6.937,4.92,6.937c1.704,0,2.688-0.456,3.289-1.032l1.056,1.368
		c-0.744,0.721-2.208,1.417-4.608,1.417c-4.633,0-6.625-3.337-6.625-8.521C71.543,5.938,73.943,2.675,78.432,2.675z"/>
	<path id="XMLID_31_" class="st0" d="M88.511,4.619h-4.488V2.914h10.873v1.705h-4.464V19.74h-1.92V4.619z"/>
</g>
</svg>