<!-- Generator: Adobe Illustrator 21.0.0, SVG Export Plug-In  -->
<svg version="1.1"
	 xmlns="http://www.w3.org/2000/svg" xmlns:xlink="http://www.w3.org/1999/xlink" xmlns:a="http://ns.adobe.com/AdobeSVGViewerExtensions/3.0/"
	 x="0px" y="0px" width="253.147px" height="158.691px" viewBox="0 0 253.147 158.691"
	 style="enable-background:new 0 0 253.147 158.691;" xml:space="preserve">
<style type="text/css">
	.st0{fill-rule:evenodd;clip-rule:evenodd;fill:#FFFFFF;}
</style>
<defs>
</defs>
<g>
	<path class="st0" d="M228.63,10.643h-63.287v15.394h63.096V10.643H228.63 M197.462,63.286c-7.412,0-13.493,2.091-18.055,6.462
		c-4.561,4.371-7.222,10.263-7.602,17.675h50.363C220.648,71.269,212.476,63.286,197.462,63.286L197.462,63.286 M199.362,135.505
		c5.132,0,10.263-1.33,15.014-3.991c4.94-2.661,7.982-6.272,9.312-10.833h27.368c-8.171,25.277-25.848,38.01-52.834,38.01
		c-17.675,0-31.738-5.511-42.191-16.344c-10.453-10.833-15.584-25.087-15.584-42.951c0-17.104,5.322-31.358,16.154-42.761
		c10.833-11.403,24.706-16.915,41.621-16.915c11.403,0,21.286,2.851,29.648,8.362c8.363,5.511,14.823,12.923,19.005,22.046
		c4.18,9.123,6.271,19.385,6.271,30.598c0,1.33,0,3.421-0.191,5.892h-81.341c0,9.123,2.281,16.154,7.032,21.286
		C183.588,133.035,190.43,135.505,199.362,135.505L199.362,135.505 M34.399,129.424h36.68c16.914,0,25.276-6.842,25.276-20.715
		c0-14.824-8.172-22.236-24.516-22.236h-37.44V129.424L34.399,129.424 M34.399,63.096h34.779c6.462,0,11.593-1.52,15.204-4.561
		c3.801-3.041,5.702-7.602,5.702-14.064c0-11.783-7.792-17.865-23.566-17.865H34.399V63.096L34.399,63.096 M0,0h73.359
		c7.222,0,13.494,0.57,19.195,1.71c5.511,1.14,10.833,3.041,15.584,5.892c4.751,2.851,8.552,6.652,11.213,11.973
		c2.661,5.131,3.801,11.593,3.801,19.005c0,14.824-7.032,25.847-21.286,32.498c9.313,2.661,16.534,7.412,21.286,14.254
		c4.751,6.842,7.222,15.204,7.222,25.276c0,6.272-0.95,11.783-3.041,16.915c-2.09,5.131-4.751,9.312-8.172,12.733
		c-3.421,3.421-7.412,6.462-12.163,8.742c-4.751,2.471-9.693,4.181-15.014,5.131c-5.321,1.14-10.833,1.52-16.534,1.52H0V0L0,0 M0,0
		L0,0z"/>
</g>
</svg>