<!-- Generator: Adobe Illustrator 19.0.0, SVG Export Plug-In  -->
<svg version="1.1"
	 xmlns="http://www.w3.org/2000/svg" xmlns:xlink="http://www.w3.org/1999/xlink" xmlns:a="http://ns.adobe.com/AdobeSVGViewerExtensions/3.0/"
	 x="0px" y="0px" width="36.633px" height="22.896px" viewBox="0 0 36.633 22.896"
	 style="enable-background:new 0 0 36.633 22.896;" xml:space="preserve">
<style type="text/css">
	.st0{fill:#050505;}
</style>
<defs>
</defs>
<g id="Behance_1_">
	<path class="st0" d="M15.071,10.348c0.76-0.382,1.335-0.807,1.727-1.271c0.7-0.829,1.047-1.927,1.047-3.289
		c0-1.324-0.347-2.459-1.038-3.408C15.654,0.833,13.701,0.04,10.94,0H0v22.333h10.201c1.15,0,2.214-0.098,3.198-0.3
		c0.984-0.204,1.835-0.576,2.557-1.122c0.642-0.476,1.176-1.062,1.602-1.757c0.674-1.05,1.01-2.237,1.01-3.561
		c0-1.283-0.295-2.376-0.881-3.272C17.095,11.421,16.225,10.765,15.071,10.348z M4.512,3.878H9.44c1.083,0,1.975,0.117,2.677,0.349
		c0.81,0.336,1.215,1.022,1.215,2.065c0,0.935-0.308,1.589-0.92,1.959c-0.616,0.37-1.415,0.555-2.395,0.555H4.512V3.878z
		 M12.303,18.064c-0.545,0.261-1.312,0.393-2.294,0.393H4.512v-5.956h5.574c0.969,0.009,1.725,0.136,2.264,0.378
		c0.963,0.436,1.441,1.232,1.441,2.397C13.791,16.648,13.296,17.575,12.303,18.064z"/>
	<rect x="23.408" y="1.041" class="st0" width="9.701" height="2.779"/>
	<path class="st0" d="M35.145,8.597c-0.758-1.113-1.721-1.929-2.891-2.444c-1.167-0.516-2.479-0.776-3.937-0.776
		c-2.453,0-4.446,0.767-5.986,2.291c-1.536,1.528-2.305,3.723-2.305,6.585c0,3.051,0.849,5.257,2.557,6.611
		c1.699,1.356,3.666,2.031,5.895,2.031c2.699,0,4.799-0.803,6.298-2.408c0.961-1.011,1.503-2.008,1.622-2.985h-4.469
		c-0.259,0.484-0.56,0.863-0.903,1.137c-0.622,0.504-1.434,0.756-2.427,0.756c-0.943,0-1.747-0.208-2.414-0.623
		c-1.103-0.665-1.68-1.827-1.753-3.483h12.197c0.019-1.426-0.028-2.522-0.146-3.279C36.28,10.718,35.836,9.579,35.145,8.597z
		 M24.539,12.441c0.159-1.075,0.549-1.927,1.167-2.556c0.618-0.629,1.493-0.943,2.613-0.943c1.034,0,1.898,0.295,2.6,0.888
		c0.694,0.597,1.086,1.464,1.165,2.612H24.539z"/>
</g>
</svg>