<!-- Generator: Adobe Illustrator 19.0.0, SVG Export Plug-In  -->
<svg version="1.1"
	 xmlns="http://www.w3.org/2000/svg" xmlns:xlink="http://www.w3.org/1999/xlink" xmlns:a="http://ns.adobe.com/AdobeSVGViewerExtensions/3.0/"
	 x="0px" y="0px" width="36.711px" height="36.711px" viewBox="0 0 36.711 36.711"
	 style="enable-background:new 0 0 36.711 36.711;" xml:space="preserve">
<style type="text/css">
	.st0{fill:#050505;}
</style>
<defs>
</defs>
<path id="Facebook_1_" class="st0" d="M36.711,34.685c0,1.119-0.907,2.026-2.026,2.026H25.33V22.495h4.772l0.714-5.54H25.33v-3.537
	c0-1.604,0.445-2.697,2.746-2.697l2.934-0.001V5.763c-0.507-0.068-2.249-0.218-4.275-0.218c-4.23,0-7.126,2.582-7.126,7.324v4.086
	h-4.784v5.54h4.784v14.217H2.026C0.907,36.711,0,35.804,0,34.685V2.026C0,0.907,0.907,0,2.026,0h32.659
	c1.119,0,2.026,0.907,2.026,2.026V34.685z"/>
</svg>