<!-- Generator: Adobe Illustrator 19.0.0, SVG Export Plug-In  -->
<svg version="1.1"
	 xmlns="http://www.w3.org/2000/svg" xmlns:xlink="http://www.w3.org/1999/xlink" xmlns:a="http://ns.adobe.com/AdobeSVGViewerExtensions/3.0/"
	 x="0px" y="0px" width="36.663px" height="36.663px" viewBox="0 0 36.663 36.663"
	 style="enable-background:new 0 0 36.663 36.663;" xml:space="preserve">
<style type="text/css">
	.st0{fill:#050505;}
</style>
<defs>
</defs>
<path id="Instagram_1_" class="st0" d="M32.305,0H4.358C1.951,0,0,1.947,0,4.348v27.967c0,2.401,1.951,4.348,4.358,4.348h27.947
	c2.407,0,4.358-1.947,4.358-4.348V4.348C36.663,1.947,34.712,0,32.305,0z M26.352,5.729c0-0.632,0.513-1.146,1.146-1.146h3.437
	c0.632,0,1.146,0.513,1.146,1.146v3.437c0,0.632-0.513,1.146-1.146,1.146h-3.437c-0.632,0-1.146-0.513-1.146-1.146V5.729z
	 M18.374,11.34c3.894,0,7.051,3.15,7.051,7.034c0,3.885-3.157,7.035-7.051,7.035c-3.893,0-7.05-3.15-7.05-7.035
	C11.324,14.49,14.481,11.34,18.374,11.34z M33.226,32.08c0,0.632-0.513,1.146-1.146,1.146H4.583c-0.632,0-1.146-0.513-1.146-1.146
	V14.894H8.02c-0.597,0.859-0.799,2.462-0.799,3.479c0,6.135,5.003,11.127,11.152,11.127c6.15,0,11.154-4.992,11.154-11.127
	c0-1.017-0.144-2.596-0.885-3.479h4.583V32.08z"/>
</svg>