<!-- Generator: Adobe Illustrator 19.0.0, SVG Export Plug-In  -->
<svg version="1.1"
	 xmlns="http://www.w3.org/2000/svg" xmlns:xlink="http://www.w3.org/1999/xlink" xmlns:a="http://ns.adobe.com/AdobeSVGViewerExtensions/3.0/"
	 x="0px" y="0px" width="107.302px" height="31.787px" viewBox="0 0 107.302 31.787"
	 style="enable-background:new 0 0 107.302 31.787;" xml:space="preserve">
<style type="text/css">
	.st0{font-family:'KohinoorDevanagari-Regular';}
	.st1{font-size:24px;}
</style>
<defs>
</defs>
<g id="XMLID_15_">
	<path id="XMLID_17_" d="M4.032,5.194c0.048,1.44,0.072,2.784,0.072,4.464v10.081H2.28V2.914h2.688l5.665,10.657
		c0.648,1.224,1.344,2.544,1.944,3.792h0.168c-0.048-1.536-0.048-3.097-0.048-4.513V2.914h1.8v16.825h-2.64L6.145,9.011
		C5.473,7.763,4.849,6.49,4.225,5.194H4.032z"/>
	<path id="XMLID_19_" d="M19.032,19.739V2.914h8.929v1.704h-7.009v5.736h6.168v1.704h-6.168v5.977h7.345v1.704H19.032z"/>
	<path id="XMLID_21_" d="M36.336,12.635l-4.32,7.104h-2.184l5.496-8.641l-5.184-8.185h2.28l4.032,6.601h0.12l3.984-6.601h2.161
		l-5.137,8.137l5.544,8.688h-2.28l-4.392-7.104H36.336z"/>
	<path id="XMLID_23_" d="M48.312,4.618h-4.488V2.914h10.873v1.704h-4.464v15.121h-1.92V4.618z"/>
	<path id="XMLID_25_" d="M69.792,19.979c-4.008,0-6.432-2.376-6.432-8.568c0-6.217,2.568-8.737,6.625-8.737
		c3.984,0,6.433,2.376,6.433,8.569C76.417,17.459,73.824,19.979,69.792,19.979z M69.912,18.251c2.784,0,4.537-1.632,4.537-6.84
		c0-5.257-1.8-7.009-4.608-7.009c-2.736,0-4.513,1.608-4.513,6.841C65.327,16.499,67.127,18.251,69.912,18.251z"/>
	<path id="XMLID_28_" d="M81.911,5.194c0.048,1.44,0.072,2.784,0.072,4.464v10.081h-1.824V2.914h2.688l5.665,10.657
		c0.648,1.224,1.344,2.544,1.944,3.792h0.168c-0.048-1.536-0.048-3.097-0.048-4.513V2.914h1.8v16.825h-2.64L84.023,9.011
		c-0.672-1.248-1.296-2.521-1.92-3.816H81.911z"/>
	<path id="XMLID_30_" d="M96.911,19.739V2.914h8.929v1.704h-7.009v5.736h6.168v1.704h-6.168v5.977h7.345v1.704H96.911z"/>
</g>
</svg>