<!-- Generator: Adobe Illustrator 19.0.0, SVG Export Plug-In  -->
<svg version="1.1"
	 xmlns="http://www.w3.org/2000/svg" xmlns:xlink="http://www.w3.org/1999/xlink" xmlns:a="http://ns.adobe.com/AdobeSVGViewerExtensions/3.0/"
	 x="0px" y="0px" width="163.15px" height="31.788px" viewBox="0 0 163.15 31.788"
	 style="enable-background:new 0 0 163.15 31.788;" xml:space="preserve">
<style type="text/css">
	.st0{fill:#FFFFFF;}
</style>
<defs>
</defs>
<g id="XMLID_15_">
	<path id="XMLID_17_" class="st0" d="M12.217,14.123V2.914h1.92v10.97c0,4.056-2.352,6.097-6.121,6.097
		c-3.792,0-5.833-2.185-5.833-5.809V2.914h1.92v10.97c0,3.024,1.608,4.368,4.128,4.368C10.681,18.252,12.217,17.124,12.217,14.123z"
		/>
	<path id="XMLID_19_" class="st0" d="M23.232,12.636l-4.32,7.104h-2.184l5.496-8.641L17.04,2.914h2.28l4.032,6.601h0.12l3.984-6.601
		h2.16l-5.137,8.137l5.544,8.689h-2.28l-4.392-7.104H23.232z"/>
	<path id="XMLID_21_" class="st0" d="M49.561,14.123V2.914h1.92v10.97c0,4.056-2.352,6.097-6.121,6.097
		c-3.792,0-5.833-2.185-5.833-5.809V2.914h1.92v10.97c0,3.024,1.608,4.368,4.128,4.368C48.025,18.252,49.561,17.124,49.561,14.123z"
		/>
	<path id="XMLID_23_" class="st0" d="M56.16,2.914h1.92V19.74h-1.92V2.914z"/>
	<path id="XMLID_25_" class="st0" d="M69.744,2.914h4.416c5.064,0,7.345,2.616,7.345,8.257c0,5.473-2.208,8.569-7.369,8.569h-4.392
		V2.914z M71.664,18.036h2.448c3.696,0,5.424-1.824,5.424-6.648c0-5.017-1.968-6.769-5.544-6.769h-2.328V18.036z"/>
	<path id="XMLID_28_" class="st0" d="M94.104,18.731C93.24,19.38,91.872,19.908,90,19.908c-3.72,0-5.737-1.896-5.737-6.769
		c0-4.729,2.641-6.673,5.545-6.673c3.096,0,4.752,2.017,4.752,5.112c0,0.648-0.048,1.416-0.144,2.257h-8.305
		c0.168,3.216,1.512,4.439,4.128,4.439c1.296,0,2.472-0.504,3.024-0.983L94.104,18.731z M86.135,12.3h6.552
		c0.024-0.288,0.024-0.576,0.024-0.744c0-2.232-0.96-3.48-3.072-3.48C87.935,8.075,86.303,9.155,86.135,12.3z"/>
	<path id="XMLID_31_" class="st0" d="M97.535,10.091c0-1.872,1.608-3.624,4.464-3.624c1.56,0,3.024,0.552,3.816,1.393l-1.2,1.296
		c-0.6-0.624-1.656-1.057-2.664-1.057c-1.776,0-2.568,0.889-2.568,1.944c0,2.929,6.601,1.752,6.601,6.192
		c0,1.801-1.512,3.721-4.656,3.721c-2.16,0-3.792-0.816-4.608-1.656l1.152-1.392c0.792,0.815,2.04,1.439,3.552,1.439
		c1.824,0,2.712-0.96,2.712-2.064C104.136,13.331,97.535,14.508,97.535,10.091z"/>
	<path id="XMLID_33_" class="st0" d="M110.807,1.498c0.792,0,1.392,0.576,1.392,1.368c0,0.769-0.6,1.345-1.392,1.345
		c-0.744,0-1.344-0.576-1.344-1.345C109.463,2.074,110.063,1.498,110.807,1.498z M109.991,6.683h1.872V19.74h-1.872V6.683z"/>
	<path id="XMLID_36_" class="st0" d="M125.688,19.836c0,3.433-2.112,5.137-5.376,5.137c-2.472,0-3.768-0.864-4.296-1.393l1.08-1.488
		c0.648,0.648,1.68,1.225,3.432,1.225c2.376,0,3.336-1.152,3.336-3.48v-1.2h-0.096c-0.408,0.36-1.512,1.032-3.192,1.032
		c-2.688,0-4.969-1.68-4.969-6.12c0-4.177,2.041-6.985,6.361-6.985c1.656,0,2.928,0.288,3.72,0.673V19.836z M121.703,8.195
		c-2.52,0-4.2,1.656-4.2,5.112c0,3.744,1.728,4.729,3.576,4.729c1.032,0,2.136-0.456,2.76-1.272V8.555
		C123.287,8.339,122.543,8.195,121.703,8.195z"/>
	<path id="XMLID_39_" class="st0" d="M139.535,19.74h-1.872v-8.569c0-1.992-0.984-3.096-2.808-3.096
		c-1.608,0-2.856,1.056-3.312,2.328v9.337h-1.872V6.683h1.416l0.384,1.368h0.096c0.36-0.456,1.68-1.632,3.721-1.632
		c2.616,0,4.176,1.416,4.248,4.32V19.74z"/>
	<path id="XMLID_41_" class="st0" d="M152.591,18.731c-0.864,0.648-2.232,1.177-4.104,1.177c-3.72,0-5.737-1.896-5.737-6.769
		c0-4.729,2.641-6.673,5.545-6.673c3.096,0,4.752,2.017,4.752,5.112c0,0.648-0.048,1.416-0.144,2.257h-8.305
		c0.168,3.216,1.512,4.439,4.128,4.439c1.296,0,2.472-0.504,3.024-0.983L152.591,18.731z M144.623,12.3h6.552
		c0.024-0.288,0.024-0.576,0.024-0.744c0-2.232-0.96-3.48-3.072-3.48C146.422,8.075,144.791,9.155,144.623,12.3z"/>
	<path id="XMLID_44_" class="st0" d="M163.007,8.531c-0.48-0.145-0.984-0.192-1.464-0.192c-1.272,0-2.592,0.504-3.216,1.681v9.721
		h-1.848V6.683h1.416l0.408,1.44h0.096c0.576-0.937,1.776-1.656,3.289-1.656c0.6,0,1.032,0.048,1.32,0.12V8.531z"/>
</g>
</svg>