<!-- Generator: Adobe Illustrator 19.0.0, SVG Export Plug-In  -->
<svg version="1.1"
	 xmlns="http://www.w3.org/2000/svg" xmlns:xlink="http://www.w3.org/1999/xlink" xmlns:a="http://ns.adobe.com/AdobeSVGViewerExtensions/3.0/"
	 x="0px" y="0px" width="67.136px" height="56.219px" viewBox="0 0 67.136 56.219"
	 style="enable-background:new 0 0 67.136 56.219;" xml:space="preserve">
<style type="text/css">
	.st0{fill:#070707;}
</style>
<defs>
</defs>
<g>
	<path class="st0" d="M66.58,32.17L34.998,0.586C34.623,0.211,34.113,0,33.584,0c-0.53,0-1.039,0.211-1.414,0.586L0.586,32.17
		c-0.781,0.78-0.781,2.047,0,2.828c0.781,0.781,1.798,0.781,2.579,0l6.044-6.295v25.016c0,1.104,1.396,2.5,2.5,2.5h13.979h16h14.021
		c1.104,0,1.5-1.396,1.5-2.5V28.954l6.293,6.044c0.392,0.39,1.027,0.586,1.539,0.586c0.513,0,1.086-0.196,1.478-0.586
		C67.299,34.217,67.361,32.95,66.58,32.17z M39.209,52.219h-12v-13.5c0-1.654,1.825-2.5,3.479-2.5h6c1.654,0,2.521,0.846,2.521,2.5
		V52.219z M53.209,52.219h-10v-13.5c0-3.86-2.661-6.5-6.521-6.5h-6c-3.86,0-7.479,2.64-7.479,6.5v13.5h-10v-27.5
		c0-0.005,0.249-0.009,0.249-0.014L33.209,4.829l20,20.125V52.219z"/>
</g>
</svg>