<!-- Generator: Adobe Illustrator 19.0.0, SVG Export Plug-In  -->
<svg version="1.1"
	 xmlns="http://www.w3.org/2000/svg" xmlns:xlink="http://www.w3.org/1999/xlink" xmlns:a="http://ns.adobe.com/AdobeSVGViewerExtensions/3.0/"
	 x="0px" y="0px" width="77.596px" height="118.724px" viewBox="0 0 77.596 118.724"
	 style="enable-background:new 0 0 77.596 118.724;" xml:space="preserve">
<style type="text/css">
	.st0{fill:none;stroke:#000000;stroke-width:2;stroke-miterlimit:10;}
	.st1{font-family:'KohinoorDevanagari-Regular';}
	.st2{font-size:24px;}
</style>
<defs>
</defs>
<g id="XMLID_16_">
	<path id="XMLID_18_" d="M17.379,17.582h4.416c5.064,0,7.345,2.616,7.345,8.257c0,5.473-2.208,8.569-7.369,8.569h-4.392V17.582z
		 M19.299,32.704h2.448c3.696,0,5.424-1.824,5.424-6.648c0-5.017-1.968-6.769-5.544-6.769h-2.328V32.704z"/>
	<path id="XMLID_21_" d="M31.898,27.903c0-4.033,1.512-6.793,5.473-6.793c3.984,0,5.353,2.688,5.353,6.673
		c0,4.032-1.536,6.84-5.497,6.84S31.898,31.912,31.898,27.903z M37.37,32.992c2.52,0,3.432-1.656,3.432-5.064
		c0-3.504-1.056-5.208-3.576-5.208c-2.472,0-3.408,1.656-3.408,5.041C33.818,31.264,34.874,32.992,37.37,32.992z"/>
	<path id="XMLID_24_" d="M16.658,53.559c0-1.872,1.608-3.624,4.464-3.624c1.56,0,3.024,0.552,3.816,1.392l-1.2,1.296
		c-0.6-0.624-1.656-1.056-2.664-1.056c-1.776,0-2.568,0.888-2.568,1.944c0,2.928,6.601,1.752,6.601,6.192
		c0,1.8-1.512,3.72-4.656,3.72c-2.16,0-3.792-0.816-4.608-1.656l1.152-1.392c0.792,0.816,2.04,1.44,3.552,1.44
		c1.824,0,2.712-0.96,2.712-2.064C23.259,56.799,16.658,57.975,16.658,53.559z"/>
	<path id="XMLID_26_" d="M28.899,59.727v-8.064h-1.944v-1.2l1.944-0.36l0.576-3.384h1.272v3.432h3.6v1.512h-3.6v7.969
		c0,1.464,0.744,2.064,1.896,2.064c1.056,0,1.656-0.24,1.992-0.456l0.528,1.488c-0.504,0.288-1.368,0.6-2.928,0.6
		C30.074,63.328,28.899,62.199,28.899,59.727z"/>
	<path id="XMLID_28_" d="M47.499,54.183v9.025h-1.872v-8.737c0-1.632-0.864-2.88-2.64-2.88c-1.8,0-3.024,1.176-3.48,2.304v9.313
		h-1.872V44.99h1.872v6.601h0.096c0.384-0.456,1.56-1.656,3.768-1.656C45.891,49.935,47.499,51.519,47.499,54.183z"/>
	<path id="XMLID_30_" d="M23.475,74.942c2.568,0,3.913,0.912,4.464,1.392l-1.2,1.464c-0.72-0.6-1.704-1.128-3.457-1.128
		c-2.928,0-4.729,2.136-4.729,6.889c0,4.561,1.704,6.937,4.92,6.937c1.704,0,2.688-0.456,3.289-1.032l1.056,1.368
		c-0.744,0.72-2.208,1.417-4.608,1.417c-4.633,0-6.625-3.336-6.625-8.521C16.587,78.207,18.987,74.942,23.475,74.942z"/>
	<path id="XMLID_32_" d="M30.026,85.503c0-4.033,1.512-6.793,5.473-6.793c3.984,0,5.353,2.688,5.353,6.673
		c0,4.032-1.536,6.84-5.497,6.84S30.026,89.512,30.026,85.503z M35.498,90.592c2.52,0,3.432-1.656,3.432-5.064
		c0-3.504-1.056-5.208-3.576-5.208c-2.472,0-3.408,1.656-3.408,5.041C31.946,88.864,33.002,90.592,35.498,90.592z"/>
	<path id="XMLID_35_" d="M43.442,85.503c0-4.033,1.512-6.793,5.473-6.793c3.984,0,5.353,2.688,5.353,6.673
		c0,4.032-1.536,6.84-5.497,6.84S43.442,89.512,43.442,85.503z M48.914,90.592c2.52,0,3.432-1.656,3.432-5.064
		c0-3.504-1.056-5.208-3.576-5.208c-2.472,0-3.408,1.656-3.408,5.041C45.362,88.864,46.418,90.592,48.914,90.592z"/>
	<path id="XMLID_38_" d="M59.546,73.79v15.122c0,1.152,0.384,1.656,1.368,1.656c0.48,0,0.84-0.144,1.08-0.264v1.584
		c-0.48,0.216-1.128,0.288-1.632,0.288c-1.8,0-2.664-1.056-2.664-2.76V73.79H59.546z"/>
</g>
<rect id="XMLID_15_" x="1" y="1" class="st0" width="75.596" height="116.724"/>
</svg>